<svg width="940" height="260" viewBox="0 0 940 260" fill="none" xmlns="http://www.w3.org/2000/svg" role="img" aria-label="Remindly">
  <defs>
    <linearGradient id="bg" x1="38" y1="30" x2="220" y2="226" gradientUnits="userSpaceOnUse">
      <stop offset="0" stop-color="#0B3C5D"/>
      <stop offset="1" stop-color="#116D6E"/>
    </linearGradient>
    <linearGradient id="accent" x1="94" y1="96" x2="170" y2="178" gradientUnits="userSpaceOnUse">
      <stop offset="0" stop-color="#F4D35E"/>
      <stop offset="1" stop-color="#EE964B"/>
    </linearGradient>
  </defs>

  <rect x="20" y="20" width="216" height="216" rx="58" fill="url(#bg)"/>
  <path d="M128 62C102.39 62 81.5 82.89 81.5 108.5V136.43L70.87 154.67C68.33 159.03 71.47 164.5 76.53 164.5H179.47C184.53 164.5 187.67 159.03 185.13 154.67L174.5 136.43V108.5C174.5 82.89 153.61 62 128 62Z" fill="white"/>
  <path d="M128 191.5C140.11 191.5 150 181.61 150 169.5H106C106 181.61 115.89 191.5 128 191.5Z" fill="white"/>
  <circle cx="172" cy="172" r="30" fill="url(#accent)"/>
  <path d="M157.7 171.47L167.2 180.97L187.7 160.47" stroke="#0B3C5D" stroke-width="8" stroke-linecap="round" stroke-linejoin="round"/>

  <text x="280" y="132" fill="#0B3C5D" font-family="Poppins, Montserrat, Arial, sans-serif" font-size="96" font-weight="700" letter-spacing="1.5">Remindly</text>
  <text x="284" y="180" fill="#116D6E" font-family="Poppins, Montserrat, Arial, sans-serif" font-size="30" font-weight="500" letter-spacing="1">Lembretes que chegam no tempo certo</text>
</svg>
